<svg version="1.2" xmlns="http://www.w3.org/2000/svg" viewBox="0 0 1050 250" width="1050" height="250">
	<title>amazon-svg</title>
	<style>
		.s0 { fill: #000000 } 
	</style>
	<g>
		<g>
			<path class="s0" d="m405.7 199c-35 25.8-85.7 39.6-129.4 39.6-61.2 0-116.4-22.7-158.1-60.3-3.2-3-0.3-7 3.6-4.7 45 26.2 100.7 41.9 158.2 41.9 38.8 0 81.4-8 120.6-24.7 6-2.5 10.9 3.9 5.1 8.2z"/>
			<path class="s0" d="m420.3 182.4c-4.5-5.7-29.6-2.7-40.9-1.4-3.4 0.4-3.9-2.6-0.8-4.7 20-14.1 52.8-10 56.6-5.3 3.8 4.7-1 37.6-19.8 53.3-2.9 2.5-5.6 1.2-4.3-2 4.2-10.6 13.7-34.2 9.2-39.9z"/>
		</g>
		<path fill-rule="evenodd" class="s0" d="m394.2 72.9v-13.7c0-2.1 1.6-3.4 3.5-3.4h61.2c2 0 3.6 1.4 3.6 3.4v11.7c0 2-1.7 4.6-4.6 8.6l-31.8 45.4c11.8-0.3 24.3 1.4 35 7.5 2.4 1.3 3 3.3 3.2 5.3v14.6c0 2-2.2 4.3-4.5 3.1-18.8-9.9-43.9-11-64.7 0.1-2.1 1.2-4.4-1.1-4.4-3.1v-13.9c0-2.2 0.1-6 2.3-9.4l36.8-52.8h-32c-2 0-3.6-1.4-3.6-3.4zm-223.5 85.4h-18.6c-1.8-0.1-3.2-1.5-3.4-3.2v-95.6c0-2 1.6-3.5 3.6-3.5h17.4c1.8 0.1 3.3 1.5 3.4 3.2v12.5h0.3c4.6-12.1 13.1-17.7 24.6-17.7 11.6 0 18.9 5.6 24.2 17.7 4.5-12.1 14.7-17.7 25.7-17.7 7.8 0 16.4 3.2 21.6 10.5 5.9 8 4.7 19.7 4.7 30v60.3c0 1.9-1.6 3.5-3.6 3.5h-18.6c-1.9-0.1-3.4-1.6-3.4-3.5v-50.7c0-4 0.4-14.1-0.5-17.9-1.4-6.4-5.6-8.2-11-8.2-4.5 0-9.2 3-11.1 7.8-1.9 4.8-1.7 12.9-1.7 18.3v50.7c0 1.9-1.6 3.5-3.6 3.5h-18.7c-1.8-0.1-3.3-1.6-3.3-3.5v-50.7c0-10.6 1.7-26.3-11.5-26.3-13.4 0-12.9 15.3-12.9 26.3v50.7c0 1.9-1.6 3.5-3.6 3.5zm344.5-104.3c27.7 0 42.7 23.8 42.7 54 0 29.1-16.6 52.3-42.7 52.3-27.1 0-41.9-23.8-41.9-53.4 0-29.8 15-52.9 41.9-52.9zm0.2 19.5c-13.7 0-14.6 18.7-14.6 30.4 0 11.7-0.2 36.7 14.4 36.7 14.5 0 15.2-20.2 15.2-32.4 0-8.1-0.4-17.8-2.8-25.4-2.1-6.7-6.3-9.3-12.2-9.3zm78.3 84.8h-18.5c-1.9-0.1-3.4-1.6-3.4-3.5v-95.7c0.1-1.7 1.7-3.1 3.6-3.1h17.3c1.6 0.1 2.9 1.2 3.3 2.7v14.6h0.3c5.2-13.1 12.6-19.3 25.4-19.3 8.4 0 16.5 3 21.8 11.3 4.9 7.6 4.9 20.5 4.9 29.8v60.2c-0.2 1.7-1.8 3-3.6 3h-18.7c-1.7-0.1-3.1-1.4-3.3-3v-52c0-10.4 1.2-25.8-11.7-25.8-4.5 0-8.7 3.1-10.8 7.7-2.6 5.8-2.9 11.7-2.9 18.1v51.5c-0.1 1.9-1.7 3.5-3.7 3.5zm66.3-7.6c0-4.8 4.1-8.7 9.2-8.7 5.1 0 9.2 3.9 9.2 8.7 0 4.8-4.1 8.7-9.2 8.7-5.1 0-9.2-3.9-9.2-8.7zm197.5 7.6c-1.9-0.1-3.4-1.6-3.4-3.4v-95.7c0.1-1.7 1.5-3.1 3.3-3.2h6.8c1.9 0 3.4 1.4 3.6 3.2v13.9c4.9-11 13.9-19.7 25.4-19.7h1.4c12.2 0 21 9 24.3 22 5.2-12.9 14.9-22 27.7-22h1.4c9.1 0 17.8 5.8 22.3 14.7 4.3 8.5 4.2 19.7 4.2 29.2l-0.1 57.6c0.1 1.8-1.4 3.3-3.3 3.4h-8.2c-1.7-0.1-3.2-1.3-3.4-3v-58c0-6.8 0.3-14.1-2.5-20.3-2.8-6.4-8.2-10.4-14-10.7-6.5 0.3-12.5 5.1-16.4 11.5-5 8.2-4.9 15.7-4.9 25.3v52.3c-0.2 1.6-1.6 2.8-3.3 2.9h-8.1c-1.9-0.1-3.5-1.6-3.5-3.4v-61.4c0-5.7-0.4-12.3-3-17.3-3-5.8-8.4-9.6-14.1-9.9-5.8 0.4-11.8 4.8-15.3 10.1-4.5 6.6-5.4 14.9-5.4 23.3v55.2c0 1.8-1.5 3.3-3.3 3.4 0 0-8.2 0-8.2 0zm-56.1 2c-26.5 0-38.3-27-38.3-53.9 0-28.4 13.9-53 40.5-53h1.4c25.9 0 38.8 26.2 38.8 53.2 0 28.5-14.3 53.7-41 53.7zm1.9-13.1c8.7-0.3 15.6-5.7 19.6-14.7 3.7-8 4.4-17.3 4.4-26.1 0-9.7-1.1-19.8-5.6-28-4.1-7.2-11-11.8-18.4-12.1-8.3 0.3-15.6 5.9-19.3 14.5-3.4 7.4-4.4 17.3-4.4 25.6 0 9.2 1.2 19.9 5.1 28 3.7 7.6 10.8 12.5 18.6 12.8zm-84.6-0.4c11.9-0.4 18.1-9.9 20.7-22.2 0.5-1.5 1.7-2.7 3.4-2.7l7.9-0.1c1.8 0.1 3.5 1.5 3.4 3.3-3.7 21-16.3 35.2-34.4 35.2h-1.4c-26.2 0-37.6-26.4-37.6-53.1 0-26.6 11.5-53.8 37.8-53.8h1.4c18.2 0 31.2 14.1 34.1 35.1 0 1.5-1.5 2.9-3.2 3.1l-8.2-0.1c-1.8-0.2-2.9-1.7-3.1-3.4-2-11.7-8.7-21-20-21.4-17.8 0.6-22.9 22.6-22.9 39.5 0 16.3 4.2 40 22.1 40.6zm-340.2-1.1c-3.8 3.2-10.6 9.1-14.3 12.4v-0.1c-1.3 1.1-3.1 1.2-4.4 0.5-6.2-5.2-7.4-7.6-10.7-12.5-10.3 10.5-17.5 13.6-30.8 13.6-15.7 0-27.9-9.7-27.9-29 0-15.2 8.2-25.5 19.9-30.5 10.1-4.5 24.3-5.3 35.1-6.5v-2.4c0-4.4 0.3-9.7-2.3-13.5-2.3-3.4-6.6-4.9-10.5-4.9-7.1 0-13.4 3.7-14.9 11.2-0.4 1.7-1.6 3.4-3.3 3.5l-18.1-2c-1.5-0.3-3.2-1.6-2.7-3.9 4.1-21.9 23.9-28.5 41.6-28.5 9.1 0 21 2.4 28.1 9.3 9.1 8.4 8.2 19.7 8.2 32v29.1c0 8.7 3.6 12.5 7.1 17.2 1.1 1.7 1.4 3.7-0.1 5zm-33.1-33.1v-4c-13.5 0-27.8 2.8-27.8 18.7 0 8.1 4.2 13.5 11.4 13.5 5.2 0 9.9-3.2 12.9-8.4 3.6-6.5 3.5-12.5 3.5-19.8zm-211.3 33.1c-3.8 3.2-10.5 9.1-14.3 12.4v-0.1c-1.2 1.1-3 1.2-4.4 0.5-6.2-5.2-7.3-7.6-10.7-12.5-10.2 10.5-17.5 13.6-30.7 13.6-15.7 0-27.9-9.7-27.9-29 0-15.2 8.2-25.5 19.8-30.5 10.2-4.5 24.3-5.3 35.1-6.5v-2.4c0-4.4 0.3-9.7-2.3-13.5-2.2-3.4-6.6-4.9-10.4-4.9-7.1 0-13.5 3.7-15 11.2-0.3 1.7-1.6 3.4-3.2 3.5l-18.1-2c-1.5-0.3-3.2-1.6-2.8-3.9 4.2-21.9 24-28.5 41.7-28.5 9 0 20.9 2.4 28.1 9.3 9 8.4 8.2 19.7 8.2 32v29.1c0 8.7 3.6 12.5 7 17.2 1.2 1.7 1.5 3.7-0.1 5zm-33.1-33.1v-4c-13.5 0-27.7 2.8-27.7 18.7 0 8.1 4.2 13.5 11.3 13.5 5.3 0 9.9-3.2 12.9-8.4 3.7-6.5 3.5-12.5 3.5-19.8zm902.6-47.3c0 5.3-4.4 9.7-9.8 9.7-5.3 0-9.7-4.3-9.7-9.7 0-5.6 4.5-9.8 9.7-9.8 5.3 0 9.8 4.2 9.8 9.8zm-18-0.1c0 4.6 3.7 8.3 8.2 8.3 4.5 0 8.2-3.8 8.2-8.3 0-4.5-3.7-8.1-8.2-8.1-4.4 0-8.2 3.5-8.2 8.1zm4.6-5.4h3.7c1.3 0 3.9 0 3.9 2.9 0 2-1.3 2.4-2.1 2.7 1.5 0.1 1.6 1.1 1.8 2.4 0.1 0.9 0.3 2.4 0.6 3h-2.4c0-0.6-0.4-3.4-0.4-3.5-0.1-0.6-0.3-1-1.1-1h-1.9v4.5h-2.1zm2 4.7h1.7c1.4 0 1.7-0.9 1.7-1.5 0-1.5-1.1-1.5-1.6-1.5h-1.8z"/>
	</g>
</svg>