<svg version="1.2" xmlns="http://www.w3.org/2000/svg" viewBox="0 0 1050 250" width="1050" height="250"></svg>
	<title>BarnesNoble-svg</title>
	<style>
		.s0 { fill: #366251 } 
		.s1 { fill: #c6beb0 } 
	</style>
	<path fill-rule="evenodd" class="s0" d="m1027.2 175.6v21.2h-55.6v-140.6h51.7v21.2h-27.2v37.7h24.2v19.6h-24.5v40.9zm-125.9-119.7h26.1v119.7h29.5v21.2h-55.6zm-18 100.8c0 29.4-13.1 40.2-36 40.2h-31.4v-140.6h31.7c25.2 0 31.7 14.3 31.7 38.2 0 17.7-6.5 26.8-17.3 27.5 12.1 0 21.6 12.1 21.6 34.7zm-38-84.1h-4.5v40.9h6.5c6.6 0 7.5-6.5 7.5-18.3 0-16.4-1.9-22.9-9.8-22.9zm1 57.6h-5.6v50h6.6c7.5 0 9.8-4.6 9.8-26.2 0-15.3-2.3-23.5-10.8-23.5zm-83.1 69.3c-21.9 0-33.3-9.1-33.3-72.6 0-61.5 9.8-72 33.6-72 24.6 0 33.7 10.5 33.7 72 0 60.2-9.8 72.6-33.7 72.6zm6.6-118.4c-1-9.8-3.3-12.1-6.6-12.1-3.9 0-5.8 2-6.5 12.1-0.6 9.8-0.6 23.9-0.6 45.8 0 26.2 0 36 0.9 45.1 0.7 10.8 2.7 11.8 6.6 11.8 4.2 0 5.5 0 6.5-11.8v-91.2zm-94.8 63.8c-2.3-6.6-4-14.4-5.9-24.2 1.3 18.9 1.3 24.2 1.3 40.9v35.9h-23.9v-140.6h23.6c0 0 10.4 41.5 13 50 2.3 8.9 4.3 15.7 4.9 22.3-0.6-14.1-0.6-30.8-0.6-44.8v-28.5h22.9v140.7h-20l-15.7-52.4zm-180.9 15.1c0 22.9-9.8 39.2-32 39.2-19 0-31.7-9.8-31.7-34.3 0-5.6 0-10.8 1.3-15.1h22.9c-1 5.3-1.7 8.5-1.7 14.7 0 15.7 4 18.4 9.8 18.4 4.3 0 7.6-2.3 7.6-18 0-13.8-9.8-23.9-19.7-36-10.4-11.8-21.2-27.5-21.2-40.6 0-20.9 9.8-32.7 30.1-32.7 19.6 0 30.4 10.5 30.4 31.1 0 4.6-1.3 8.2-2 11.4h-20.9l0.7-9.8c0-13.1-2-18-7.6-18-5.9 0-6.5 5.6-6.5 15.7 0 13.1 9.8 22.9 18.6 33.4 11.8 15.1 21.6 26.8 21.6 41.5zm-81.8-103.6v21.2h-27.1v37.6h24.2v19.7h-23.9v40.8h31.1v21.3h-55.6v-140.6zm-111.2 88.3c-2-6.6-3.9-14.4-5.6-24.2 1.3 18.9 1.3 24.2 1.3 40.9v35.9h-23.5v-140.6h23.5l13.1 50c2.6 8.9 4.6 15.7 5.9 22.3-0.7-14.1-1.3-30.8-1.3-44.8v-28.2h22.9v140.7h-20.6l-15.4-52.4zm-70-19.6c16.4 3.9 18 22.9 18 39.9 0 13.1 1 25.2 2.6 32.1h-26.2c0-5.9-1.6-8.2-1.6-21.6v-17.7c0-11.4-3.9-19.6-12.1-21.9h-1.3v60.5h-26.2v-140.6h38.3c17.3 0 29.4 9.8 29.4 36 0 21.5-9.8 31-20.9 32.7zm-16.3-51.1h-4.6v40.3h7.5c6.5 0 8.5-4.3 8.5-16.4 0-21.2-3.3-24.2-11.4-23.9zm-75 99.8l0.1 0.3h0.3zm-16.1 0.4l-1.9 22.9h-21.9l20.6-141.7h24.8l23.9 141.3h-26.2l-3.2-22.5zm11.8-42.6c-0.7-6.5-3.3-27.1-3.3-40.5-1 14-3.2 34-3.2 40.2l-3.3 27.2h13.1zm-45.2 24.5c0 29.4-13.1 40.2-36 40.2h-31.4v-140.6h31.8c24.8 0 31.4 14.4 31.4 38.2 0 17.7-6.6 26.9-17.4 27.5 12.1 0 21.6 12.1 21.6 34.7zm-37.9-83.4h-4.9v40.9h6.5c6.6 0 7.5-6.6 7.5-18.4 0-16.3-1.6-22.8-9.8-22.8zm0.7 57.2h-5.3v50h6.6c7.5 0 9.8-4.5 9.8-26.1 0-15.4-2.3-23.6-10.8-23.6z"/>
	<path fill-rule="evenodd" class="s1" d="m634 138.9c-0.6 4.6-3.3 8.2-8.5 8.2-10.8 0-2.3-16.3-12.4-16.3-5.9 0-9.8 5.2-16.4 18.9l-9.8 23.6 2 4.2c6.5 8.9 12.4 15.1 19.6 15.1 3.9 0 8.2-2 14.7-8.5l3.3 4.6c-7.2 8.8-16.4 13.7-24.5 13.7-9.8 0-18.4-8.8-24.6-15.7-9.1 9.8-19.6 15.7-34 15.7-20.6 0-39.2-13.1-34.7-42.5 4-17.7 17.4-29.5 32.8-39.3-4.6-11.8-7.2-26.2-5.3-36.9 3.6-22.6 23.9-35.7 41.2-35.7 20.3 0 29.5 13.7 26.2 29.4-1.6 8.2-5.2 15.7-13.7 22.9-8.9 7.9-23.6 14.8-31.8 19.7 5.3 13 13.1 27.8 24.2 46.7 3.3-6.5 8.2-18.3 13.1-27.8 4.3-9.8 11.1-15.7 21.3-15.7 14 0 18 9.8 17.3 15.7zm-109.6 24.6c-1.9 12.1 5.6 28.4 25.2 28.4 9.8 0 16.4-2.6 22.9-10.8-12.4-17.6-21.2-34.6-28.4-51.7-9.8 8.6-17 18-19.7 34.1zm60.6-71c4.2-5.6 5.5-9.8 6.5-14.4 2.3-11.8-4.6-19.6-14.7-19.6-13.1 0-22.9 10.8-23.6 20.9-2.3 11.1-1 21.9 2.6 33.4 7.9-4.6 24.2-14.8 29.5-20.3z"/>
</svg>