<svg version="1.2" xmlns="http://www.w3.org/2000/svg" viewBox="0 0 1800 250" width="1800" height="250">
	<title>New Project</title>
	<style>
		.s0 { fill: #264f9b } 
	</style>
	<g id="g2993">
		<path id="path19770" fill-rule="evenodd" class="s0" d="m325.2 125.9c0-39.2 32.9-71 76.3-71 43.8 0 76.4 31.8 76.4 71 0 39.2-32.6 71-76.4 71-43 0-76.3-31.8-76.3-71zm104.7 0c0-15.6-12.7-28.2-28.4-28.2-15.7 0-28.3 12.6-28.3 28.2 0 15.6 12.6 28.3 28.3 28.3 15.7 0 28.4-12.7 28.4-28.3z"/>
		<path id="path19762" fill-rule="evenodd" class="s0" d="m153 73.2c6.5 8.9 7 22.1 4.4 30.1-4.2 12.5-11 16.8-22.9 20.7 9.6 3.3 17 6.2 23.6 17.7 5.3 9.2 5.3 23.6 0.2 32.3-10 17.8-38 17.8-46.9 17.8h-76.4v-134.7h73.7c12.3 0 33.5 1.1 44.3 16.1zm-70.9 35.3h13.5c8.8 0 14.2-2.1 14.2-11 0-8-5.4-10.9-14.2-10.9h-13.5zm0 54.2h15.4c8.8 0 14.2-2.1 14.2-11 0-8-5.4-10.9-14.2-10.9h-15.4z"/>
		<path id="path19778" class="s0" d="m945.7 147.8c-11.3 0-20.4-9.1-20.4-20.3 0-11.3 9.1-20.3 20.4-20.3 11.3 0 20.4 9 20.4 20.3 0 11.2-9.1 20.3-20.4 20.3z"/>
		<path id="path19774" class="s0" d="m763.8 147.8c-11.3 0-20.4-9.1-20.4-20.4 0-11.2 9.1-20.3 20.4-20.3 11.3 0 20.5 9.1 20.5 20.3 0 11.3-9.2 20.4-20.5 20.4z"/>
		<path id="path19766" fill-rule="evenodd" class="s0" d="m165.8 125.9c0-39.2 32.9-71 76.4-71 43.8 0 76.4 31.8 76.4 71 0 39.2-32.6 71-76.4 71-43.1 0-76.4-31.8-76.4-71zm104.8 0c0-15.6-12.7-28.2-28.4-28.2-15.7 0-28.4 12.6-28.4 28.2 0 15.6 12.7 28.3 28.4 28.3 15.7 0 28.4-12.7 28.4-28.3z"/>
		<path id="path19786" class="s0" d="m699.7 96.8c-3.3-8.7-6.3-12.1-15.2-13.2-3.7-0.5-11.4-0.1-15.1 4.5-1.9 2.7-2.1 5.7-1.1 8.1 3 7.1 14.6 6.6 21.4 7.1 12.8 0.9 31.9 3.8 41.7 21.1 6.5 11.6 6.5 29.6-0.2 42.4-10.1 19.5-30.1 26.9-45.7 28.6-12.3 1.7-39.7-0.2-54.7-16.6-2.9-3.3-5.5-7.4-8.5-15.1l33.6-12.3c5.4 9.6 11.1 13.7 20.1 13.9 4.6 0 10.4-1.1 13.5-5.7 1.4-2.2 2-5.3 0.2-8.4-3.2-5.9-11.7-5.8-19.5-6.1-11.1-0.7-31.3-4.6-40.6-21.8-7.2-13-7-29 0.2-42.7 9.3-17.8 25.9-23.8 40.4-25.9 11.8-1.7 39.1-1.5 53.1 12.9 4.2 4.8 6.7 9.9 8.6 16.9z"/>
		<path id="path19782" class="s0" d="m533.7 57.1v56.2l36.1-56.2h51.3l-41 61.8 47.3 72.9h-56.4l-37.3-57.3v57.3h-47.1v-134.7z"/>
		<path id="path19790" fill-rule="evenodd" class="s0" d="m820.5 192.6h-52.1l83.2-138.1h4.4l83.2 138.1h-52.1l-7.9-16.6h-50.9zm33.2-71.4l-12.1 26h24.3z"/>
		<path id="path19794" class="s0" d="m981 55.4l65.7 53.2 69-53.2h3.5l4.2 136.4h-45.6l-2.6-49.5-28.7 22.6-31.4-23.8-1.9 50.7h-42l5.9-136.4z"/>
		<path id="path19814" class="s0" d="m1628.5 55.4l88.6 54.4v-52.7h47.1v138.3h-3.3l-90.2-54.6v51h-47.1v-136.4z"/>
		<path id="path19800" class="s0" d="m1249.9 57.1v103.7h41.3v31h-88.4v-134.7z"/>
		<path id="path19796" class="s0" d="m1186.5 57.1v134.7h-47.1v-134.7z"/>
		<path id="path19804" class="s0" d="m1347.8 57.1v103.7h41.3v31h-88.4v-134.7z"/>
		<path id="path19810" fill-rule="evenodd" class="s0" d="m1459.2 125.9c0-39.2 32.9-71 76.4-71 43.7 0 76.3 31.8 76.3 71 0 39.2-32.6 71-76.3 71-43.1 0-76.4-31.8-76.4-71zm104.7 0c0-15.6-12.7-28.2-28.4-28.2-15.7 0-28.4 12.6-28.4 28.2 0 15.6 12.7 28.3 28.4 28.3 15.7 0 28.4-12.7 28.4-28.3z"/>
		<path id="path19806" class="s0" d="m1447.2 57.1v134.7h-47.1v-134.7z"/>
	</g>
</svg>