<svg version="1.2" xmlns="http://www.w3.org/2000/svg" viewBox="0 0 500 100" width="500" height="100">
	<title>Books-A-Million_logo1-svg</title>
	<style>
		.s0 { fill: #264f9b } 
	</style>
	<g id="g19752">
		<path id="path19762" fill-rule="evenodd" class="s0" d="m54.9 35.8c1.7 2.4 1.8 5.8 1.1 7.9-1.1 3.3-2.9 4.4-6 5.4 2.5 0.9 4.4 1.6 6.2 4.6 1.4 2.5 1.4 6.2 0 8.5-2.6 4.6-9.9 4.6-12.2 4.6h-20v-35.2h19.3c3.2 0 8.7 0.3 11.6 4.2zm-18.6 9.3h3.5c2.3 0 3.8-0.6 3.8-2.9 0-2.1-1.5-2.9-3.8-2.9h-3.5zm0 14.2h4c2.3 0 3.8-0.5 3.8-2.9 0-2.1-1.5-2.8-3.8-2.8h-4z"/>
		<path id="path19766" fill-rule="evenodd" class="s0" d="m58.2 49.6c0-10.2 8.6-18.5 20-18.5 11.4 0 19.9 8.3 19.9 18.5 0 10.3-8.5 18.6-19.9 18.6-11.3 0-20-8.3-20-18.6zm27.4 0c0-4.1-3.3-7.4-7.4-7.4-4.1 0-7.5 3.3-7.5 7.4 0 4.1 3.4 7.4 7.5 7.4 4.1 0 7.4-3.3 7.4-7.4z"/>
		<path id="path19770" fill-rule="evenodd" class="s0" d="m99.9 49.6c0-10.2 8.6-18.5 19.9-18.5 11.5 0 20 8.3 20 18.5 0 10.3-8.5 18.6-20 18.6-11.2 0-19.9-8.3-19.9-18.6zm27.3 0c0-4.1-3.3-7.4-7.4-7.4-4.1 0-7.4 3.3-7.4 7.4 0 4.1 3.3 7.4 7.4 7.4 4.1 0 7.4-3.3 7.4-7.4z"/>
		<path id="path19774" class="s0" d="m214.5 55.3c-2.9 0-5.3-2.3-5.3-5.3 0-2.9 2.4-5.3 5.3-5.3 3 0 5.4 2.4 5.4 5.3 0 3-2.4 5.3-5.4 5.3z"/>
		<path id="path19778" class="s0" d="m262.1 55.3c-3 0-5.4-2.3-5.4-5.3 0-2.9 2.4-5.3 5.4-5.3 2.9 0 5.3 2.4 5.3 5.3 0 3-2.4 5.3-5.3 5.3z"/>
		<path id="path19782" class="s0" d="m154.4 31.6v14.7l9.4-14.7h13.4l-10.7 16.2 12.4 19h-14.8l-9.7-14.9v14.9h-12.3v-35.2z"/>
		<path id="path19786" class="s0" d="m197.8 42c-0.9-2.3-1.7-3.2-4-3.4-1-0.2-3-0.1-4 1.1-0.5 0.7-0.5 1.5-0.2 2.1 0.8 1.9 3.8 1.8 5.5 1.9 3.4 0.2 8.4 1 10.9 5.5 1.7 3.1 1.7 7.8 0 11.1-2.7 5.1-7.9 7-11.9 7.5-3.3 0.4-10.4-0.1-14.3-4.4-0.8-0.8-1.5-1.9-2.3-3.9l8.8-3.2c1.4 2.5 2.9 3.6 5.3 3.6 1.2 0 2.7-0.3 3.5-1.5 0.4-0.5 0.5-1.4 0-2.2-0.8-1.5-3-1.5-5-1.6-3-0.2-8.2-1.2-10.7-5.7-1.8-3.4-1.8-7.6 0.1-11.1 2.4-4.7 6.8-6.3 10.6-6.8 3-0.4 10.2-0.4 13.8 3.4 1.1 1.2 1.8 2.6 2.3 4.4z"/>
		<path id="path19790" fill-rule="evenodd" class="s0" d="m229.4 67.1h-13.7l21.8-36.1h1.1l21.8 36.1h-13.7l-2-4.4h-13.3zm8.7-18.7l-3.2 6.8h6.4z"/>
		<path id="path19794" class="s0" d="m271.3 31.2l17.2 13.9 18-13.9h0.9l1.1 35.6h-11.9l-0.7-12.9-7.5 5.9-8.2-6.2-0.5 13.2h-11l1.6-35.6z"/>
		<path id="path19804" class="s0" d="m367.2 31.6v27.1h10.8v8.1h-23.1v-35.2z"/>
		<path id="path19796" class="s0" d="m325 31.6v35.2h-12.3v-35.2z"/>
		<path id="path19800" class="s0" d="m341.6 31.6v27.1h10.8v8.1h-23.1v-35.2z"/>
		<path id="path19806" class="s0" d="m393.2 31.6v35.2h-12.3v-35.2z"/>
		<path id="path19810" fill-rule="evenodd" class="s0" d="m396.3 49.6c0-10.2 8.6-18.5 20-18.5 11.4 0 19.9 8.3 19.9 18.5 0 10.3-8.5 18.6-19.9 18.6-11.3 0-20-8.3-20-18.6zm27.4 0c0-4.1-3.3-7.4-7.4-7.4-4.1 0-7.5 3.3-7.5 7.4 0 4.1 3.4 7.4 7.5 7.4 4.1 0 7.4-3.3 7.4-7.4z"/>
		<path id="path19814" class="s0" d="m440.6 31.2l23.1 14.2v-13.8h12.3v36.2h-0.8l-23.6-14.3v13.3h-12.3v-35.6z"/>
	</g>
</svg>