<svg version="1.2" xmlns="http://www.w3.org/2000/svg" viewBox="0 0 1000 250" width="1000" height="250">
	<title>New Project</title>
	<style>
		.s0 { fill: #0071ce } 
		.s1 { fill: #ffc220 } 
	</style>
	<g>
		<path fill-rule="evenodd" class="s0" d="m590.7 165.2c0 9 0.4 16.3 1.5 23.3-22 6.4-26-10.3-26-10.3h-0.6c-6.1 7.7-16.2 12.5-28.1 12.5-19.7 0-30.9-14.1-30.9-29.2 0-24.6 22.1-36.7 57.1-36.6v-1.4c0-5.8-2.6-14.9-18.7-14.9-9.7 0-19.9 3.3-26.4 7.4l-5.1-17.6c7-4 19.9-8.6 36.1-8.6 31.7 0 41.1 19.3 41.1 41.1zm-26.1-23.2c-16.7-0.1-31.3 3.6-31.3 16.8 0 8.7 5.7 12.8 13 12.8 8.6 0 15.6-5.7 17.6-12.4 0.5-1.6 0.7-3.4 0.7-5.2zm-480.7-82c2.7 13.7 10.4 53.1 10.4 53.1 3.2 16.3 6.2 33.3 8.4 46.7h0.4c2.2-14.2 5.6-27.8 9.3-44.6l12.9-55.2h28.6l12.1 56.7c3.2 15.7 5.7 27.9 7.7 42.5h0.4c2.2-14.8 5-27.4 8.1-43.6l11.7-55.6h27.4l-34 128.6c-21.7 4.7-30-4-32.9-17.8-3-13.8-8.9-40.2-8.9-40.2-2.9-14.4-5.3-24.5-6.9-39.3h-0.4c-2.3 14.6-4.8 24.9-8.4 39.3l-14.3 58c-22.1 4.3-29.7-2.2-34-19.9-3.6-15.2-26.5-108.7-26.5-108.7zm213.9 105.3c0 8.9 0.4 16.3 1.5 23.3-22 6.3-26-10.3-26-10.3h-0.6c-6.1 7.6-16.1 12.4-28.2 12.4-19.5 0-30.8-14.1-30.8-29.1 0-24.6 22.1-36.7 57.1-36.7v-1.4c0-5.8-2.6-14.9-18.6-14.8-9.8 0-20 3.3-26.4 7.3l-5.2-17.5c7-4.1 19.9-8.7 36.1-8.7 31.7 0 41.1 19.3 41.1 41.2zm-26.1-23.3c-16.7 0-31.3 3.6-31.3 16.8 0 8.7 5.7 12.8 13 12.8 8.6 0 15.6-5.6 17.6-12.3 0.5-1.6 0.7-3.4 0.7-5.2zm66.5-82v128.5h-26.2v-128.5zm358.5 0v30.4h22.8v24.5h-22.8v36.3c0 11.8 3 17.4 11.9 17.4 4.2 0 7.3-0.5 10-1.1l0.3 20.4c-3.6 1.3-11.2 2.8-19 2.8-9 0-16.6-3.2-21.3-8.1-5.2-5.6-7.7-14.7-7.7-27.8v-94.8zm-69.6 32v18.2h0.7c4.8-14 16.2-20.4 26.3-20.4 2.5 0 3.9 0.2 5.9 0.6v25.3c-2.4-0.4-4.6-0.7-7.7-0.7-11.4 0-19.3 6.6-21.4 17-0.4 2.1-0.5 4.4-0.5 7.1v49.4h-27.1v-96.5zm-248.7 0v13.1h0.4c4.4-7 11.8-15.3 28.2-15.3 12.7 0 22.5 6.8 26.6 17.2h0.4c3.6-5.2 7.7-9.1 12.3-12 5.4-3.3 11.4-5.2 19-5.2 17.3 0 32.5 11.9 32.5 41.8v56.9h-26.2v-52.9c0-15.2-5.2-24-15.9-24-7.9 0-13.7 5.3-15.8 11.8-0.7 2.2-1.1 5.3-1.1 7.8v57.3h-26.2v-55c0-12.9-5-21.9-15.6-21.9-8.6 0-13.9 6.7-16 12.4-0.9 2.5-1.2 5.2-1.2 7.9v56.6h-26.4v-96.5z"/>
		<path fill-rule="evenodd" class="s1" d="m836.2 87l-4.6-51.7c0-5.1 6-9.3 13.6-9.3 7.5 0 13.5 4.2 13.5 9.3l-4.6 51.7c-0.5 3-4.3 5.4-8.9 5.4-4.6 0-8.5-2.4-9-5.4zm-19 21.6c-2.3 4-6.3 6.1-9.3 4.9l-47.1-21.8c-4.4-2.6-5.1-9.9-1.4-16.4 3.8-6.5 10.5-9.6 14.9-7l42.6 29.8c2.4 2 2.6 6.5 0.3 10.5zm56 0c-2.3-4-2.1-8.5 0.2-10.5l42.6-29.7c4.4-2.6 11.1 0.5 14.9 7 3.7 6.5 3 13.7-1.3 16.3l-47.2 21.9c-2.9 1.1-6.9-1-9.3-5zm-28 48.4c4.6 0 8.5 2.4 9 5.5l4.5 51.6c0 5.1-6 9.3-13.5 9.3-7.6 0-13.5-4.2-13.5-9.3l4.6-51.6c0.4-3.1 4.3-5.5 8.9-5.5zm28-16.1c2.4-4.1 6.3-6.2 9.3-5l47.1 21.8c4.4 2.6 5 9.9 1.3 16.4-3.7 6.4-10.4 9.5-14.8 7l-42.6-29.8c-2.4-2-2.6-6.5-0.3-10.4zm-55.9-0.1c2.3 4 2.1 8.5-0.3 10.5l-42.6 29.8c-4.4 2.5-11.1-0.6-14.9-7-3.7-6.5-3-13.8 1.4-16.4l47.1-21.8c3-1.2 7 0.9 9.3 4.9zm127 40.9c-3.2 0-5.9-2.6-5.9-5.8 0-3.2 2.7-5.8 5.9-5.8 3.3 0 5.9 2.6 5.9 5.8 0 3.2-2.6 5.8-5.9 5.8zm0-10.5c-2.5 0-4.4 2.1-4.4 4.6 0 2.6 1.9 4.7 4.4 4.7 2.6 0 4.5-2.1 4.5-4.7 0-2.5-1.9-4.6-4.5-4.6zm-0.8 7.6h-1.4v-5.7c0.6-0.1 1.3-0.2 2.2-0.2 1.1 0 1.6 0.2 2.1 0.4 0.3 0.3 0.5 0.7 0.5 1.3 0 0.6-0.4 1.1-1.2 1.3v0.2c0.6 0.1 1 0.5 1.1 1.3 0.1 0.9 0.3 1.3 0.4 1.4h-1.5c-0.2-0.2-0.2-0.6-0.4-1.4-0.1-0.6-0.4-0.8-1.2-0.8h-0.6zm0-3.2h0.6c0.8 0 1.4-0.3 1.4-0.9 0-0.5-0.5-0.9-1.3-0.9l-0.7 0.1z"/>
	</g>
</svg>